<?xml version="1.0" encoding="UTF-8" standalone="no"?>
<svg
   width="64"
   height="64"
   version="1.1"
   id="svg14"
   sodipodi:docname="gitkraken.svg"
   xml:space="preserve"
   inkscape:version="1.4.2 (ebf0e940d0, 2025-05-08)"
   inkscape:export-filename="gitkraken.png"
   inkscape:export-xdpi="96"
   inkscape:export-ydpi="96"
   xmlns:inkscape="http://www.inkscape.org/namespaces/inkscape"
   xmlns:sodipodi="http://sodipodi.sourceforge.net/DTD/sodipodi-0.dtd"
   xmlns="http://www.w3.org/2000/svg"
   xmlns:svg="http://www.w3.org/2000/svg"><sodipodi:namedview
     id="namedview14"
     pagecolor="#505050"
     bordercolor="#eeeeee"
     borderopacity="1"
     inkscape:showpageshadow="0"
     inkscape:pageopacity="0"
     inkscape:pagecheckerboard="0"
     inkscape:deskcolor="#505050"
     inkscape:zoom="7.65625"
     inkscape:cx="42.057143"
     inkscape:cy="29.844898"
     inkscape:window-width="1488"
     inkscape:window-height="1182"
     inkscape:window-x="0"
     inkscape:window-y="0"
     inkscape:window-maximized="0"
     inkscape:current-layer="svg14" /><defs
     id="defs7"><linearGradient
       id="e"
       x1="31.386"
       x2="31.622"
       y1="16.646"
       y2="51.602"
       gradientUnits="userSpaceOnUse"><stop
         offset="0"
         stop-color="#33e3f6"
         id="stop1" /><stop
         offset="1"
         stop-color="#36efba"
         id="stop2" /></linearGradient><linearGradient
       id="a"
       x1="-56.186"
       x2="-56.186"
       y1="71.524"
       y2="23.903"
       gradientTransform="translate(89.554 -15.761)"
       gradientUnits="userSpaceOnUse"><stop
         offset="0"
         stop-color="#194c62"
         id="stop3" /><stop
         offset="1"
         stop-color="#423f76"
         id="stop4" /></linearGradient><linearGradient
       id="c"
       x1="31.242"
       x2="31.242"
       y1="58.444"
       y2="5.428"
       gradientTransform="translate(4.571 4.571) scale(.85714)"
       gradientUnits="userSpaceOnUse"><stop
         offset="0"
         stop-color="#1086b9"
         id="stop5"
         style="stop-color:#1049b9;stop-opacity:1;" /><stop
         offset="1"
         stop-color="#5d59a6"
         id="stop6"
         style="stop-color:#5486ab;stop-opacity:1;" /></linearGradient><filter
       id="d"
       width="1.1124882"
       height="1.1285507"
       x="-0.056244091"
       y="-0.064275346"
       color-interpolation-filters="sRGB"><feGaussianBlur
         stdDeviation=".917"
         id="feGaussianBlur6" /></filter><filter
       id="b"
       width="1.1622"
       height="1.1622"
       x="-0.081099999"
       y="-0.081099999"
       color-interpolation-filters="sRGB"><feGaussianBlur
         stdDeviation="1.622"
         id="feGaussianBlur7" /></filter></defs><g
     color="#000"
     id="g11"><path
       d="M4.37.53C2.254.53.53 2.312.53 4.496v8.468c0 2.184 1.725 3.968 3.84 3.968h8.194c2.114 0 3.84-1.783 3.84-3.968V4.497c0-2.184-1.726-3.968-3.84-3.968zm.256.52h7.681c1.844 0 3.33 1.534 3.33 3.44v7.937c0 1.906-1.485 3.44-3.33 3.44h-7.68c-1.845 0-3.33-1.534-3.33-3.44V4.49c0-1.906 1.485-3.44 3.33-3.44z"
       opacity=".01"
       style="font-feature-settings:normal;font-variant-alternates:normal;font-variant-caps:normal;font-variant-east-asian:normal;font-variant-ligatures:normal;font-variant-numeric:normal;font-variant-position:normal;font-variation-settings:normal;inline-size:0;isolation:auto;mix-blend-mode:normal;shape-margin:0;shape-padding:0;text-decoration-color:#000;text-decoration-line:none;text-decoration-style:solid;text-indent:0;text-orientation:mixed;text-transform:none;white-space:normal"
       transform="scale(3.7796)"
       id="path7" /><path
       d="M4.359.794C2.392.794.795 2.447.795 4.48v8.5c0 2.035 1.597 3.688 3.564 3.688h8.216c1.967 0 3.564-1.653 3.564-3.688v-8.5c0-2.034-1.597-3.687-3.564-3.687zm.272.256h7.672c1.842 0 3.325 1.534 3.325 3.44v7.937c0 1.906-1.483 3.44-3.325 3.44H4.63c-1.842 0-3.325-1.534-3.325-3.44V4.49c0-1.906 1.483-3.44 3.325-3.44z"
       opacity=".01"
       style="font-feature-settings:normal;font-variant-alternates:normal;font-variant-caps:normal;font-variant-east-asian:normal;font-variant-ligatures:normal;font-variant-numeric:normal;font-variant-position:normal;font-variation-settings:normal;inline-size:0;isolation:auto;mix-blend-mode:normal;shape-margin:0;shape-padding:0;text-decoration-color:#000;text-decoration-line:none;text-decoration-style:solid;text-indent:0;text-orientation:mixed;text-transform:none;white-space:normal"
       transform="scale(3.7796)"
       id="path8" /><path
       d="M4.31 1.058c-1.866 0-3.375 1.539-3.375 3.44v8.467c0 1.9 1.57 3.439 3.435 3.439h8.2c1.866 0 3.427-1.538 3.427-3.44V4.498c0-1.9-1.51-3.439-3.375-3.439h-.097c1.794.087 3.214 1.582 3.214 3.432v7.937c0 1.906-1.506 3.44-3.377 3.44h-7.79c-1.871 0-3.377-1.534-3.377-3.44V4.49c0-1.85 1.42-3.345 3.214-3.432z"
       opacity=".03"
       style="font-feature-settings:normal;font-variant-alternates:normal;font-variant-caps:normal;font-variant-east-asian:normal;font-variant-ligatures:normal;font-variant-numeric:normal;font-variant-position:normal;font-variation-settings:normal;inline-size:0;isolation:auto;mix-blend-mode:normal;shape-margin:0;shape-padding:0;text-decoration-color:#000;text-decoration-line:none;text-decoration-style:solid;text-indent:0;text-orientation:mixed;text-transform:none;white-space:normal"
       transform="scale(3.7796)"
       id="path9" /><path
       d="M4 46.969V49c0 6.648 5.896 12 12.544 12h30.961C54.153 61 60 55.648 60 49v-1.992a12.972 12.972 0 0 1-13 12.963H17.002A12.973 12.973 0 0 1 4 46.969z"
       opacity=".03"
       style="font-feature-settings:normal;font-variant-alternates:normal;font-variant-caps:normal;font-variant-east-asian:normal;font-variant-ligatures:normal;font-variant-numeric:normal;font-variant-position:normal;font-variation-settings:normal;inline-size:0;isolation:auto;mix-blend-mode:normal;shape-margin:0;shape-padding:0;text-decoration-color:#000;text-decoration-line:none;text-decoration-style:solid;text-indent:0;text-orientation:mixed;text-transform:none;white-space:normal"
       id="path10" /><path
       d="M1.058 11.906v.592c0 1.939 1.573 3.5 3.332 3.5h8.16c1.76 0 3.325-1.561 3.325-3.5v-.58c-.006 2.095-1.537 3.78-3.44 3.78H4.498c-1.905 0-3.44-1.692-3.44-3.792z"
       opacity=".05"
       style="font-feature-settings:normal;font-variant-alternates:normal;font-variant-caps:normal;font-variant-east-asian:normal;font-variant-ligatures:normal;font-variant-numeric:normal;font-variant-position:normal;font-variation-settings:normal;inline-size:0;isolation:auto;mix-blend-mode:normal;shape-margin:0;shape-padding:0;text-decoration-color:#000;text-decoration-line:none;text-decoration-style:solid;text-indent:0;text-orientation:mixed;text-transform:none;white-space:normal"
       transform="scale(3.7796)"
       id="path11" /></g><rect
     width="56"
     height="56"
     x="4"
     y="4"
     fill="url(#a)"
     rx="13.002"
     ry="13.002"
     id="rect11" /><rect
     width="48"
     height="48"
     x="8"
     y="8.755"
     filter="url(#b)"
     opacity=".25"
     rx="11.144"
     ry="11.144"
     id="rect12" /><rect
     width="48"
     height="48"
     x="8"
     y="8"
     fill="url(#c)"
     rx="11.144"
     ry="11.144"
     id="rect13" /><path
     d="m 31.206244,13.316449 c -1.484797,3.639055 -2.379843,6.019419 -4.032396,9.550631 1.013309,1.074264 2.256891,2.324619 4.272048,3.737521 -2.171451,-0.893483 -3.64687,-1.790613 -4.759687,-2.721607 -2.115184,4.412713 -5.428626,10.699916 -12.152933,22.782517 5.290045,-3.050867 9.382354,-4.93161 13.205316,-5.650564 -0.164109,-0.705409 -0.257365,-1.468126 -0.250071,-2.263665 l 0.0063,-0.169319 c 0.08336,-3.386379 1.845316,-5.990244 3.931846,-5.81311 2.086531,0.177134 3.708346,3.066496 3.624468,6.452876 a 9.5652187,9.5652187 0 0 1 -0.213082,1.818746 c 3.777116,0.738751 7.830351,2.615326 13.043812,5.625036 l -2.823719,-5.22336 c -1.380601,-1.069574 -2.820073,-2.462158 -5.756845,-3.969878 2.018803,0.524628 3.464527,1.129488 4.584637,1.806243 -8.90883,-16.588049 -9.630911,-18.7918 -12.685946,-25.962067 z"
     fill="#1793d1"
     fill-rule="evenodd"
     id="path1"
     style="stroke-width:0.520981" /></svg>
